<svg id="Icons" xmlns="http://www.w3.org/2000/svg" viewBox="0 0 200 200"><defs><style>.cls-1{fill:#3c415a;}</style></defs><g id="Text"><path class="cls-1" d="M148.76,0H3A3,3,0,0,0,0,3V197a3,3,0,0,0,3,3H197a3,3,0,0,0,3-3V51.24a3,3,0,0,0-.88-2.12L150.88.88A3,3,0,0,0,148.76,0Zm34.57,50H150V16.67Zm0,133.33H16.66V16.67H133.33v47a3,3,0,0,0,3,3h47Z"/><rect class="cls-1" x="33.33" y="50" width="83.33" height="16.67" rx="3"/><rect class="cls-1" x="33.33" y="83.33" width="100" height="16.67" rx="3"/><rect class="cls-1" x="33.33" y="116.67" width="133.33" height="16.66" rx="3"/><rect class="cls-1" x="33.33" y="150" width="133.33" height="16.67" rx="3"/></g></svg>