<svg id="Icons" xmlns="http://www.w3.org/2000/svg" viewBox="0 0 200 200"><defs><style>.cls-1{fill:#3c415a;}</style></defs><g id="Video"><path class="cls-1" d="M0,3V197a3,3,0,0,0,3,3H196.93a3.06,3.06,0,0,0,3.07-3.07V3.07A3.06,3.06,0,0,0,196.93,0H3A3,3,0,0,0,0,3ZM166.67,16.67V50H133.33V16.67Zm-50,0V50H83.33V16.67Zm-50,0V50H33.33V16.67ZM33.33,183.33V150H66.67v33.33Zm50,0V150h33.34v33.33Zm50,0V150h33.34v33.33Zm50-50H16.67V66.67H183.33Z"/><path class="cls-1" d="M128.54,97.4,88,74a3,3,0,0,0-4.5,2.59v46.84A3,3,0,0,0,88,126l40.56-23.41A3,3,0,0,0,128.54,97.4Z"/></g></svg>