<svg id="Icons" xmlns="http://www.w3.org/2000/svg" viewBox="0 0 200 200"><defs><style>.cls-1{fill:#3c415a;}</style></defs><g id="Trash"><path class="cls-1" d="M116.67,16.67V3a3,3,0,0,0-3-3H86.33a3,3,0,0,0-3,3V16.67H3a3,3,0,0,0-3,3V30.34a3,3,0,0,0,3,3H16.67V182.1a3,3,0,0,0,.88,2.12l14.9,14.9a3,3,0,0,0,2.12.88H165.43a3,3,0,0,0,2.12-.88l14.9-14.9a3,3,0,0,0,.88-2.12V33.34H197a3,3,0,0,0,3-3V19.67a3,3,0,0,0-3-3Zm50,166.67H33.33v-150H166.67Z"/><rect class="cls-1" x="66.67" y="50" width="16.66" height="116.67" rx="3"/><rect class="cls-1" x="116.67" y="50" width="16.66" height="116.67" rx="3"/></g></svg>